<svg width="3004" height="674" viewBox="0 0 3004 674" fill="none" xmlns="http://www.w3.org/2000/svg">
<path d="M993.064 159.551C881.561 159.551 803.207 233.384 803.207 338.358C803.207 439.816 877.04 508.125 986.032 508.125C1094.02 508.125 1167.85 433.287 1167.85 324.295C1167.85 226.353 1097.03 159.551 993.064 159.551ZM988.544 239.914C1044.3 239.914 1080.96 277.082 1080.96 333.336C1080.96 388.585 1040.78 427.762 984.023 427.762C927.769 427.762 890.099 390.594 890.099 335.345C890.099 280.597 931.787 239.914 988.544 239.914Z" fill="#2C2D84"/>
<path d="M1533.35 166.583H1448.46L1425.36 357.444C1418.83 410.182 1402.26 427.762 1360.06 427.762C1322.9 427.762 1304.31 410.182 1304.31 375.024C1304.31 364.978 1304.82 356.942 1305.82 347.399L1327.92 166.583H1243.54L1221.44 347.399C1218.93 366.485 1217.42 384.567 1217.42 393.608C1217.42 464.93 1270.16 508.125 1357.05 508.125C1406.27 508.125 1447.46 494.563 1471.57 470.454C1493.17 449.359 1501.7 423.744 1509.74 360.458L1533.35 166.583Z" fill="#2C2D84"/>
<path d="M1719.59 240.416H1789.9L1798.94 166.583H1571.92L1562.88 240.416H1634.7L1602.56 501.595H1687.44L1719.59 240.416Z" fill="#2C2D84"/>
<path d="M1837.04 166.583L1795.85 501.595H1880.74L1894.3 392.603H1935.48C1990.73 392.603 2019.86 383.562 2042.47 359.956C2063.06 338.358 2074.61 305.711 2074.61 269.045C2074.61 233.384 2059.54 200.235 2035.94 183.66C2016.35 170.601 1996.26 166.583 1950.05 166.583H1837.04ZM1913.38 233.384H1936.99C1972.65 233.384 1987.72 244.936 1987.72 272.561C1987.72 302.697 1967.63 318.77 1929.96 318.77H1903.34L1913.38 233.384Z" fill="#2C2D84"/>
<path d="M2291.41 159.551C2179.9 159.551 2101.55 233.384 2101.55 338.358C2101.55 439.816 2175.38 508.125 2284.37 508.125C2392.36 508.125 2466.19 433.287 2466.19 324.295C2466.19 226.353 2395.37 159.551 2291.41 159.551ZM2286.89 239.914C2342.64 239.914 2379.3 277.082 2379.3 333.336C2379.3 388.585 2339.12 427.762 2282.36 427.762C2226.11 427.762 2188.44 390.594 2188.44 335.345C2188.44 280.597 2230.13 239.914 2286.89 239.914Z" fill="#2C2D84"/>
<path d="M2745.3 190.692C2712.15 169.596 2682.01 160.053 2647.86 160.053C2576.03 160.053 2524.8 204.755 2524.8 267.036C2524.8 310.231 2542.88 332.833 2602.15 362.467C2633.29 378.037 2641.33 385.571 2641.33 400.639C2641.33 421.232 2623.25 434.291 2595.62 434.291C2574.03 434.291 2555.44 427.26 2525.81 407.169L2487.64 471.459C2532.84 499.084 2560.46 508.125 2600.65 508.125C2675.48 508.125 2728.72 460.409 2728.72 393.608C2728.72 348.906 2710.14 325.299 2654.39 299.684C2619.73 283.611 2611.7 275.575 2611.7 259C2611.7 241.421 2626.76 230.371 2649.87 230.371C2667.45 230.371 2686.03 238.407 2708.13 254.982L2745.3 190.692Z" fill="#2C2D84"/>
<path d="M2923.75 240.416H2994.07L3003.11 166.583H2776.09L2767.04 240.416H2838.87L2806.72 501.595H2891.61L2923.75 240.416Z" fill="#2C2D84"/>
<path fill-rule="evenodd" clip-rule="evenodd" d="M382.45 19.226C338.049 -6.40867 283.345 -6.40867 238.945 19.226L71.7525 115.755C27.3519 141.389 0 188.764 0 240.034V433.091C0 484.36 27.3519 531.735 71.7525 557.37L238.945 653.898C283.345 679.533 338.049 679.533 382.45 653.898L549.642 557.37C594.043 531.735 621.395 484.36 621.395 433.091V240.034C621.395 188.764 594.043 141.389 549.642 115.755L382.45 19.226ZM471.844 214.839L508.397 250.854C515.031 257.383 518.777 266.322 518.776 275.654C518.776 284.987 515.031 293.926 508.396 300.463L471.843 336.485C465.609 342.692 457.183 346.175 448.389 346.175H299.035V528.495C299.035 541.388 288.654 551.821 275.817 551.821C263.009 551.821 252.617 541.388 252.617 528.495V402.678H137.893C130.461 402.678 123.629 398.61 120.054 392.059L105.109 364.647C101.779 358.532 101.779 351.13 105.109 345.015L120.054 317.612C123.629 311.055 130.461 306.985 137.893 306.985H252.617V193.513C240.759 185.832 232.872 172.517 232.872 157.284C232.872 133.454 252.101 114.131 275.817 114.131C299.53 114.131 318.776 133.455 318.776 157.284C318.776 172.517 310.889 185.832 299.035 193.513V205.149H448.39C457.184 205.149 465.61 208.632 471.844 214.839ZM445.968 296.586L463.62 279.051C464.527 278.158 465.043 276.935 465.044 275.661C465.044 274.389 464.528 273.167 463.621 272.272L445.968 254.737C444.078 252.855 441.53 251.798 438.851 251.798H299.035V252.742V298.581V299.525H438.85C441.529 299.525 444.078 298.468 445.968 296.586Z" fill="#2C2D84"/>
</svg>
