<svg width="622" height="674" viewBox="0 0 622 674" fill="none" xmlns="http://www.w3.org/2000/svg">
<path fill-rule="evenodd" clip-rule="evenodd" d="M382.45 19.226C338.049 -6.40867 283.345 -6.40867 238.945 19.226L71.7525 115.755C27.3519 141.389 0 188.764 0 240.034V433.091C0 484.36 27.3519 531.735 71.7525 557.37L238.945 653.898C283.345 679.533 338.049 679.533 382.45 653.898L549.642 557.37C594.043 531.735 621.395 484.36 621.395 433.091V240.034C621.395 188.764 594.043 141.389 549.642 115.755L382.45 19.226ZM471.844 214.839L508.397 250.854C515.031 257.383 518.777 266.322 518.776 275.654C518.776 284.987 515.031 293.926 508.396 300.463L471.843 336.485C465.609 342.692 457.183 346.175 448.389 346.175H299.035V528.495C299.035 541.388 288.654 551.821 275.817 551.821C263.009 551.821 252.617 541.388 252.617 528.495V402.678H137.893C130.461 402.678 123.629 398.61 120.054 392.059L105.109 364.647C101.779 358.532 101.779 351.13 105.109 345.015L120.054 317.612C123.629 311.055 130.461 306.985 137.893 306.985H252.617V193.513C240.759 185.832 232.872 172.517 232.872 157.284C232.872 133.454 252.101 114.131 275.817 114.131C299.53 114.131 318.776 133.455 318.776 157.284C318.776 172.517 310.889 185.832 299.035 193.513V205.149H448.39C457.184 205.149 465.61 208.632 471.844 214.839ZM445.968 296.586L463.62 279.051C464.527 278.158 465.043 276.935 465.044 275.661C465.044 274.389 464.528 273.167 463.621 272.272L445.968 254.737C444.078 252.855 441.53 251.798 438.851 251.798H299.035V252.742V298.581V299.525H438.85C441.529 299.525 444.078 298.468 445.968 296.586Z" fill="#2C2D84"/>
</svg>
