<svg width="674" height="622" viewBox="0 0 674 622" fill="none" xmlns="http://www.w3.org/2000/svg">
<path d="M433.091 6.17639e-06C484.36 6.6865e-06 531.735 27.3519 557.37 71.7525L653.898 238.945C679.533 283.345 679.533 338.049 653.898 382.45L557.37 549.642C531.735 594.043 484.36 621.395 433.091 621.395H240.034C188.764 621.395 141.389 594.043 115.755 549.642L19.226 382.45C-6.40868 338.049 -6.40867 283.345 19.226 238.945L115.755 71.7525C141.389 27.3519 188.764 -5.10113e-07 240.034 0L433.091 6.17639e-06Z" fill="#2C2D84"/>
<path d="M192.725 112.396C209.903 95.7656 233.162 86.3709 257.059 86.3101C259.886 86.3101 262.744 86.4317 265.541 86.7053C289.104 89.016 311.36 100.144 326.835 118.203C341.885 135.746 350.55 158.944 349.334 182.172C348.239 202.816 340.425 222.883 332.034 241.52C322.335 263.076 310.569 283.72 297.8 303.574C286.642 320.934 274.663 337.899 261.346 353.679C259.339 356.05 254.748 356.05 252.742 353.679C251.434 352.159 250.157 350.608 248.911 349.058C235.351 332.366 223.098 314.61 211.727 296.368C199.079 276.059 187.587 254.959 178.314 232.886C170.774 214.856 163.994 195.094 164.754 175.271C165.666 151.647 175.729 128.845 192.725 112.396Z" fill="white"/>
<path d="M297.795 176.004C297.795 196.778 280.955 213.618 260.181 213.618C239.407 213.618 222.566 196.778 222.566 176.004C222.566 155.23 239.407 138.39 260.181 138.39C280.955 138.39 297.795 155.23 297.795 176.004Z" fill="#2C2D84"/>
<path fill-rule="evenodd" clip-rule="evenodd" d="M489.523 364.723C457.274 396.972 404.988 396.972 372.739 364.723C340.49 332.475 340.49 280.189 372.739 247.94C404.988 215.691 457.274 215.691 489.523 247.94C521.771 280.189 521.771 332.475 489.523 364.723ZM363.822 397.795C408.26 430.582 471.182 426.857 511.419 386.62C555.762 342.278 555.762 270.385 511.419 226.043C467.077 181.701 395.184 181.701 350.842 226.043C310.606 266.279 306.88 329.199 339.665 373.637C335.737 374.384 331.986 376.278 328.946 379.318L234.059 474.204C225.997 482.266 225.997 495.338 234.059 503.4C242.122 511.462 255.193 511.462 263.255 503.4L358.142 408.513C361.181 405.474 363.075 401.722 363.822 397.795Z" fill="white"/>
<path fill-rule="evenodd" clip-rule="evenodd" d="M387.96 349.502C411.803 373.344 450.459 373.344 474.302 349.502C498.144 325.659 498.144 287.003 474.302 263.161C450.459 239.318 411.803 239.318 387.96 263.161C364.118 287.003 364.118 325.659 387.96 349.502ZM382.873 409.145C424.954 428.894 476.654 421.385 511.419 386.62C555.762 342.278 555.762 270.385 511.419 226.043C467.077 181.701 395.184 181.701 350.842 226.043C316.078 260.807 308.569 312.505 328.315 354.585C331.423 361.208 335.206 367.593 339.665 373.636C335.737 374.384 331.986 376.277 328.946 379.317L234.059 474.204C225.997 482.266 225.997 495.337 234.059 503.4C242.122 511.462 255.193 511.462 263.255 503.4L358.142 408.513C361.181 405.473 363.075 401.722 363.822 397.795C369.865 402.254 376.25 406.037 382.873 409.145ZM370.189 426.907C420.866 452.529 484.297 444.184 526.64 401.841C579.389 349.092 579.389 263.57 526.64 210.822C473.892 158.073 388.37 158.073 335.621 210.822C293.28 253.163 284.933 316.592 310.552 367.269L218.838 458.983C202.37 475.451 202.37 502.152 218.838 518.62C235.307 535.089 262.008 535.089 278.476 518.62L370.189 426.907ZM372.739 364.723C404.988 396.972 457.274 396.972 489.523 364.723C521.771 332.474 521.771 280.188 489.523 247.94C457.274 215.691 404.988 215.691 372.739 247.94C340.49 280.188 340.49 332.474 372.739 364.723Z" fill="#2C2D84"/>
<path fill-rule="evenodd" clip-rule="evenodd" d="M487.581 290.804C493.525 290.804 498.344 295.623 498.344 301.567C498.344 339.214 467.825 369.732 430.179 369.732C424.235 369.732 419.416 364.913 419.416 358.969C419.416 353.025 424.235 348.206 430.179 348.206C455.937 348.206 476.818 327.325 476.818 301.567C476.818 295.623 481.637 290.804 487.581 290.804Z" fill="white"/>
</svg>
