<svg width="2459" height="622" viewBox="0 0 2459 622" fill="none" xmlns="http://www.w3.org/2000/svg">
<path d="M433.091 6.17639e-06C484.36 6.6865e-06 531.735 27.3519 557.37 71.7525L653.898 238.945C679.533 283.345 679.533 338.049 653.898 382.45L557.37 549.642C531.735 594.043 484.36 621.395 433.091 621.395H240.034C188.764 621.395 141.389 594.043 115.755 549.642L19.226 382.45C-6.40868 338.049 -6.40867 283.345 19.226 238.945L115.755 71.7525C141.389 27.3519 188.764 -5.10113e-07 240.034 0L433.091 6.17639e-06Z" fill="#2C2D84"/>
<path d="M192.724 112.396C209.902 95.7656 233.161 86.3709 257.058 86.3101C259.885 86.3101 262.743 86.4317 265.54 86.7053C289.103 89.016 311.359 100.144 326.834 118.203C341.884 135.746 350.549 158.944 349.333 182.172C348.238 202.816 340.424 222.883 332.033 241.52C322.334 263.076 310.568 283.72 297.799 303.574C286.641 320.934 274.662 337.899 261.345 353.679C259.338 356.05 254.747 356.05 252.741 353.679C251.433 352.159 250.156 350.608 248.91 349.057C235.35 332.366 223.097 314.61 211.726 296.368C199.078 276.059 187.586 254.959 178.313 232.886C170.773 214.856 163.993 195.094 164.753 175.271C165.665 151.647 175.728 128.845 192.724 112.396Z" fill="white"/>
<path d="M297.795 176.004C297.795 196.778 280.955 213.618 260.181 213.618C239.407 213.618 222.566 196.778 222.566 176.004C222.566 155.23 239.407 138.39 260.181 138.39C280.955 138.39 297.795 155.23 297.795 176.004Z" fill="#2C2D84"/>
<path fill-rule="evenodd" clip-rule="evenodd" d="M489.523 364.723C457.275 396.972 404.989 396.972 372.74 364.723C340.491 332.475 340.491 280.189 372.74 247.94C404.989 215.691 457.275 215.691 489.523 247.94C521.772 280.189 521.772 332.475 489.523 364.723ZM363.823 397.795C408.261 430.582 471.183 426.857 511.42 386.62C555.762 342.278 555.762 270.385 511.42 226.043C467.078 181.701 395.185 181.701 350.843 226.043C310.607 266.279 306.881 329.199 339.665 373.637C335.738 374.384 331.987 376.278 328.947 379.318L234.06 474.204C225.998 482.266 225.998 495.338 234.06 503.4C242.123 511.462 255.194 511.462 263.256 503.4L358.143 408.513C361.182 405.474 363.076 401.722 363.823 397.795Z" fill="white"/>
<path fill-rule="evenodd" clip-rule="evenodd" d="M387.961 349.502C411.804 373.344 450.46 373.344 474.302 349.502C498.145 325.659 498.145 287.003 474.302 263.161C450.46 239.318 411.804 239.318 387.961 263.161C364.119 287.003 364.119 325.659 387.961 349.502ZM382.874 409.145C424.955 428.894 476.655 421.385 511.42 386.62C555.762 342.278 555.762 270.385 511.42 226.043C467.078 181.701 395.185 181.701 350.843 226.043C316.079 260.807 308.57 312.505 328.316 354.585C331.424 361.208 335.207 367.593 339.665 373.636C335.738 374.384 331.987 376.277 328.947 379.317L234.06 474.204C225.998 482.266 225.998 495.337 234.06 503.399C242.123 511.462 255.194 511.462 263.256 503.4L358.143 408.513C361.182 405.473 363.076 401.722 363.823 397.795C369.866 402.254 376.251 406.037 382.874 409.145ZM370.19 426.907C420.867 452.529 484.298 444.184 526.641 401.841C579.39 349.092 579.39 263.57 526.641 210.822C473.893 158.073 388.371 158.073 335.622 210.822C293.281 253.163 284.934 316.592 310.553 367.269L218.839 458.983C202.371 475.451 202.371 502.152 218.839 518.62C235.308 535.089 262.009 535.089 278.477 518.62L370.19 426.907ZM372.74 364.723C404.989 396.972 457.275 396.972 489.523 364.723C521.772 332.474 521.772 280.188 489.523 247.94C457.275 215.691 404.989 215.691 372.74 247.94C340.491 280.188 340.491 332.474 372.74 364.723Z" fill="#2C2D84"/>
<path d="M1131.07 162.87C1097.92 141.775 1067.78 132.232 1033.63 132.232C961.803 132.232 910.572 176.934 910.572 239.215C910.572 282.41 928.654 305.012 987.921 334.646C1019.06 350.216 1027.1 357.75 1027.1 372.818C1027.1 393.411 1009.02 406.47 981.392 406.47C959.794 406.47 941.21 399.438 911.577 379.348L873.404 443.638C918.608 471.262 946.233 480.303 986.414 480.303C1061.25 480.303 1114.49 432.588 1114.49 365.786C1114.49 321.085 1095.91 297.478 1040.16 271.862C1005.5 255.79 997.464 247.753 997.464 231.179C997.464 213.599 1012.53 202.549 1035.64 202.549C1053.22 202.549 1071.8 210.586 1093.9 227.161L1131.07 162.87Z" fill="#2C2D84"/>
<path d="M1440.61 159.857C1404.95 140.268 1375.32 132.232 1338.65 132.232C1237.19 132.232 1156.33 212.595 1156.33 313.551C1156.33 411.493 1225.64 480.303 1325.09 480.303C1350.21 480.303 1366.78 476.787 1403.45 464.231L1413.99 378.845C1387.88 393.411 1363.26 399.941 1337.15 399.941C1281.39 399.941 1243.22 363.777 1243.22 310.035C1243.22 253.278 1286.92 212.595 1348.2 212.595C1378.83 212.595 1405.96 222.64 1430.57 243.233L1440.61 159.857Z" fill="#2C2D84"/>
<path d="M1652.28 131.73C1540.78 131.73 1462.42 205.563 1462.42 310.537C1462.42 411.995 1536.26 480.303 1645.25 480.303C1753.24 480.303 1827.07 405.465 1827.07 296.473C1827.07 198.531 1756.25 131.73 1652.28 131.73ZM1647.76 212.093C1703.51 212.093 1740.18 249.26 1740.18 305.514C1740.18 360.764 1700 399.941 1643.24 399.941C1586.98 399.941 1549.31 362.773 1549.31 307.523C1549.31 252.776 1591 212.093 1647.76 212.093Z" fill="#2C2D84"/>
<path d="M2192.56 138.761H2107.68L2084.57 329.623C2078.05 382.361 2061.47 399.941 2019.28 399.941C1982.11 399.941 1963.53 382.361 1963.53 347.202C1963.53 337.157 1964.03 329.121 1965.04 319.578L1987.14 138.761H1902.75L1880.65 319.578C1878.14 338.664 1876.64 356.745 1876.64 365.786C1876.64 437.108 1929.37 480.303 2016.27 480.303C2065.49 480.303 2106.67 466.742 2130.78 442.633C2152.38 421.538 2160.92 395.922 2168.96 332.637L2192.56 138.761Z" fill="#2C2D84"/>
<path d="M2378.8 212.595H2449.12L2458.16 138.761H2231.14L2222.09 212.595H2293.92L2261.77 473.774H2346.66L2378.8 212.595Z" fill="#2C2D84"/>
<path fill-rule="evenodd" clip-rule="evenodd" d="M487.581 290.804C493.525 290.804 498.344 295.623 498.344 301.567C498.344 339.214 467.825 369.732 430.179 369.732C424.235 369.732 419.416 364.913 419.416 358.969C419.416 353.025 424.235 348.206 430.179 348.206C455.937 348.206 476.818 327.325 476.818 301.567C476.818 295.623 481.637 290.804 487.581 290.804Z" fill="white"/>
</svg>
