<svg width="674" height="622" viewBox="0 0 674 622" fill="none" xmlns="http://www.w3.org/2000/svg">
<path fill-rule="evenodd" clip-rule="evenodd" d="M557.37 71.7525C531.735 27.3519 484.36 6.6865e-06 433.091 6.17639e-06L240.034 0C188.764 0 141.389 27.3519 115.755 71.7525L19.226 238.945C-6.40867 283.345 -6.40868 338.049 19.226 382.45L115.755 549.642C141.389 594.043 188.764 621.395 240.034 621.395H433.091C484.36 621.395 531.735 594.043 557.37 549.642L653.898 382.45C679.533 338.049 679.533 283.345 653.898 238.945L557.37 71.7525ZM192.724 112.396C209.902 95.7656 233.161 86.3709 257.058 86.3101C259.885 86.3101 262.743 86.4317 265.54 86.7053C289.103 89.016 311.359 100.144 326.834 118.203C341.884 135.746 350.549 158.944 349.333 182.172C348.997 188.497 348.031 194.766 346.612 200.958C342.815 204.01 339.146 207.298 335.622 210.822C309.261 237.183 296.076 271.719 296.062 306.262C285.399 322.684 273.973 338.715 261.345 353.679C259.338 356.05 254.747 356.05 252.741 353.679C251.433 352.159 250.156 350.608 248.91 349.057C235.35 332.366 223.097 314.61 211.726 296.368C199.078 276.059 187.586 254.959 178.313 232.886C170.773 214.856 163.993 195.094 164.753 175.271C165.665 151.647 175.728 128.845 192.724 112.396ZM297.795 176.004C297.795 196.778 280.955 213.618 260.181 213.618C239.407 213.618 222.566 196.778 222.566 176.004C222.566 155.23 239.407 138.39 260.181 138.39C280.955 138.39 297.795 155.23 297.795 176.004ZM489.523 364.723C457.275 396.972 404.989 396.972 372.74 364.723C340.491 332.475 340.491 280.189 372.74 247.94C404.989 215.691 457.275 215.691 489.523 247.94C521.772 280.189 521.772 332.475 489.523 364.723ZM363.823 397.796C408.261 430.582 471.183 426.857 511.42 386.62C555.762 342.278 555.762 270.385 511.42 226.043C467.078 181.701 395.185 181.701 350.843 226.043C310.607 266.279 306.881 329.199 339.665 373.637C335.738 374.384 331.987 376.278 328.947 379.318L234.06 474.204C225.998 482.266 225.998 495.338 234.06 503.4C242.123 511.462 255.194 511.462 263.256 503.4L358.143 408.513C361.182 405.474 363.076 401.722 363.823 397.796ZM498.344 301.567C498.344 295.623 493.525 290.804 487.581 290.804C481.636 290.804 476.818 295.623 476.818 301.567C476.818 327.325 455.937 348.206 430.179 348.206C424.235 348.206 419.416 353.025 419.416 358.969C419.416 364.913 424.235 369.732 430.179 369.732C467.825 369.732 498.344 339.214 498.344 301.567Z" fill="#FAF9F7"/>
</svg>
