<svg width="2964" height="840" viewBox="0 0 2964 840" fill="none" xmlns="http://www.w3.org/2000/svg">
<path d="M238.945 19.226C283.345 -6.40867 338.049 -6.40867 382.45 19.226L549.642 115.755C594.043 141.389 621.395 188.764 621.395 240.034V433.091C621.395 484.36 594.043 531.735 549.642 557.37L382.45 653.898C338.049 679.533 283.345 679.533 238.945 653.898L71.7525 557.37C27.3519 531.735 0 484.36 0 433.091L0 240.034C0 188.764 27.3519 141.389 71.7525 115.755L238.945 19.226Z" fill="#2C2D84"/>
<path d="M508.397 250.854L471.845 214.839C465.61 208.632 457.185 205.149 448.39 205.149H299.035V193.513C310.889 185.832 318.776 172.517 318.776 157.284C318.776 133.455 299.531 114.131 275.818 114.131C252.102 114.131 232.872 133.454 232.872 157.284C232.872 172.517 240.759 185.832 252.618 193.513V306.985H137.893C130.462 306.985 123.629 311.055 120.054 317.612L105.109 345.015C101.779 351.13 101.779 358.532 105.109 364.647L120.054 392.059C123.629 398.61 130.461 402.678 137.893 402.678H252.618V528.495C252.618 541.388 263.01 551.821 275.818 551.821C288.655 551.821 299.035 541.388 299.035 528.495V346.175H448.389C457.184 346.175 465.61 342.692 471.844 336.485L508.397 300.463C515.031 293.926 518.776 284.987 518.776 275.654C518.777 266.322 515.032 257.383 508.397 250.854ZM463.62 279.051L445.968 296.586C444.078 298.468 441.529 299.525 438.85 299.525H299.035V298.581V252.742V251.798H438.851C441.53 251.798 444.078 252.855 445.969 254.737L463.621 272.272C464.529 273.167 465.045 274.389 465.045 275.661C465.044 276.935 464.528 278.158 463.62 279.051Z" fill="#FAF9F7"/>
<path d="M953.064 0C841.561 0 763.207 73.8333 763.207 178.807C763.207 280.265 837.04 348.574 946.032 348.574C1054.02 348.574 1127.85 273.736 1127.85 164.744C1127.85 66.8016 1057.03 0 953.064 0ZM948.544 80.3628C1004.3 80.3628 1040.96 117.531 1040.96 173.785C1040.96 229.034 1000.78 268.211 944.023 268.211C887.769 268.211 850.099 231.043 850.099 175.794C850.099 121.046 891.787 80.3628 948.544 80.3628Z" fill="#2C2D84"/>
<path d="M1493.35 7.03174H1408.46L1385.36 197.893C1378.83 250.631 1362.26 268.211 1320.06 268.211C1282.9 268.211 1264.31 250.631 1264.31 215.473C1264.31 205.427 1264.82 197.391 1265.82 187.848L1287.92 7.03174H1203.54L1181.44 187.848C1178.93 206.934 1177.42 225.016 1177.42 234.057C1177.42 305.379 1230.16 348.574 1317.05 348.574C1366.27 348.574 1407.46 335.012 1431.57 310.903C1453.17 289.808 1461.7 264.193 1469.74 200.907L1493.35 7.03174Z" fill="#2C2D84"/>
<path d="M1679.59 80.865H1749.9L1758.94 7.03174H1531.92L1522.88 80.865H1594.7L1562.56 342.044H1647.44L1679.59 80.865Z" fill="#2C2D84"/>
<path d="M1797.04 7.03174L1755.85 342.044H1840.74L1854.3 233.052H1895.48C1950.73 233.052 1979.86 224.011 2002.47 200.405C2023.06 178.807 2034.61 146.16 2034.61 109.494C2034.61 73.8333 2019.54 40.6837 1995.94 24.1089C1976.35 11.0499 1956.26 7.03174 1910.05 7.03174H1797.04ZM1873.38 73.8333H1896.99C1932.65 73.8333 1947.72 85.3855 1947.72 113.01C1947.72 143.146 1927.63 159.219 1889.96 159.219H1863.34L1873.38 73.8333Z" fill="#2C2D84"/>
<path d="M2251.41 0C2139.9 0 2061.55 73.8333 2061.55 178.807C2061.55 280.265 2135.38 348.574 2244.37 348.574C2352.36 348.574 2426.19 273.736 2426.19 164.744C2426.19 66.8016 2355.37 0 2251.41 0ZM2246.89 80.3628C2302.64 80.3628 2339.3 117.531 2339.3 173.785C2339.3 229.034 2299.12 268.211 2242.36 268.211C2186.11 268.211 2148.44 231.043 2148.44 175.794C2148.44 121.046 2190.13 80.3628 2246.89 80.3628Z" fill="#2C2D84"/>
<path d="M2705.3 31.1406C2672.15 10.0454 2642.01 0.502293 2607.86 0.502293C2536.03 0.502293 2484.8 45.2041 2484.8 107.485C2484.8 150.68 2502.88 173.282 2562.15 202.916C2593.29 218.486 2601.33 226.02 2601.33 241.088C2601.33 261.681 2583.25 274.74 2555.62 274.74C2534.03 274.74 2515.44 267.708 2485.81 247.618L2447.64 311.908C2492.84 339.533 2520.46 348.574 2560.65 348.574C2635.48 348.574 2688.72 300.858 2688.72 234.057C2688.72 189.355 2670.14 165.748 2614.39 140.133C2579.73 124.06 2571.7 116.024 2571.7 99.449C2571.7 81.8696 2586.76 70.8197 2609.87 70.8197C2627.45 70.8197 2646.03 78.856 2668.13 95.4308L2705.3 31.1406Z" fill="#2C2D84"/>
<path d="M2883.75 80.865H2954.07L2963.11 7.03174H2736.09L2727.04 80.865H2798.87L2766.72 342.044H2851.61L2883.75 80.865Z" fill="#2C2D84"/>
<path d="M928.298 651.8L898.551 566.953L868.804 651.8H928.298ZM945.876 702.167H851.227L836.015 746.449H765.366L862.382 491.572H934.721L1031.74 746.449H961.088L945.876 702.167ZM1123.6 608.531H1145.57C1169.91 608.531 1182.08 597.94 1182.08 576.756C1182.08 555.573 1169.91 544.981 1145.57 544.981H1123.6V608.531ZM1123.6 746.449H1057.35V491.572H1162.81C1191.43 491.572 1213.29 499.008 1228.39 513.882C1243.71 528.755 1251.38 549.713 1251.38 576.756C1251.38 603.799 1243.71 624.757 1228.39 639.63C1213.29 654.504 1191.43 661.941 1162.81 661.941H1123.6V746.449ZM1349.32 491.572V746.449H1283.06V491.572H1349.32Z" fill="#595959"/>
</svg>
